<svg xmlns="http://www.w3.org/2000/svg"
 xmlns:xlink="http://www.w3.org/1999/xlink"
 width="13px" height="21px"  viewBox="0 0 13 21">
<path fill-rule="evenodd"  fill="#ffffff"
 d="M7.9853516,19.990234 C7.9853516,19.990234 3.9870605,19.990234 3.9870605,19.990234 C3.9870605,19.990234 3.9870605,11.494629 3.9870605,11.494629 C3.9870605,11.494629 1.9887695,11.494629 1.9887695,11.494629 C1.9887695,11.494629 1.9887695,8.220703 1.9887695,8.220703 C1.9887695,8.220703 3.9870605,8.220703 3.9870605,8.220703 C3.9870605,8.220703 3.9870605,6.2563477 3.9870605,6.2563477 C3.9870605,3.586914 5.1152344,1.9980469 8.319336,1.9980469 C8.319336,1.9980469 10.987671,1.9980469 10.987671,1.9980469 C10.987671,1.9980469 10.987671,5.272461 10.987671,5.272461 C10.987671,5.272461 9.320679,5.272461 9.320679,5.272461 C8.072876,5.272461 7.98999,5.7299805 7.98999,6.583008 C7.98999,6.583008 7.9853516,8.220703 7.9853516,8.220703 C7.9853516,8.220703 11.006958,8.220703 11.006958,8.220703 C11.006958,8.220703 10.653198,11.494629 10.653198,11.494629 C10.653198,11.494629 7.9853516,11.494629 7.9853516,11.494629 C7.9853516,11.494629 7.9853516,19.990234 7.9853516,19.990234 Z"/>
</svg>