<svg xmlns="http://www.w3.org/2000/svg" width="141.49" height="141.48" viewBox="0 0 141.49 141.48">
	<style type="text/css">
		.st0{fill:#b9bccf;fill-rule:evenodd;}
	</style>
	<path class="st0" d="M125.16,141.48L16.32,141.48C7.3,141.48 0,134.17 0,125.15L0,16.32C0,7.3 7.3,0 16.32,0L125.16,0C134.18,0 141.49,7.3 141.49,16.32L141.49,125.15C141.49,134.17 134.18,141.48 125.16,141.48M70.74,43.53C55.71,43.53 43.53,55.71 43.53,70.74C43.53,85.76 55.71,97.95 70.74,97.95C85.77,97.95 97.95,85.76 97.95,70.74C97.95,55.71 85.77,43.53 70.74,43.53M125.16,21.76C125.16,18.76 122.73,16.32 119.72,16.32L103.39,16.32C100.39,16.32 97.95,18.76 97.95,21.76L97.95,38.09C97.95,41.09 100.39,43.53 103.39,43.53L119.72,43.53C122.73,43.53 125.16,41.09 125.16,38.09ZM125.16,59.85L112.85,59.85C113.74,63.33 114.27,66.97 114.27,70.74C114.27,94.78 94.78,114.27 70.74,114.27C46.7,114.27 27.21,94.78 27.21,70.74C27.21,66.97 27.74,63.33 28.64,59.85L16.32,59.85L16.32,119.72C16.32,122.72 18.75,125.15 21.76,125.15L119.72,125.15C122.73,125.15 125.16,122.72 125.16,119.72Z"/>
</svg>
