<svg width="150" height="147" xmlns="http://www.w3.org/2000/svg">
 <!-- Created with Method Draw - http://github.com/duopixel/Method-Draw/ -->

 <g>
  <title>Layer 1</title>
  <path id="svg_7" d="m117.391841,201.739125l123.47697,139.998935" opacity="0.5" stroke-width="1.5" stroke="#000" fill="#d10138"/>
 </g>
 <g>
  <title>background</title>
  <g stroke="null" display="none">
   <rect x="0" y="0" stroke="null" fill="url(#gridpattern)" stroke-width="0" height="162.310445" width="160.400034"/>
  </g>
  <g id="svg_10">
   <path id="svg_11" d="m40.524977,22.452159c0,0 90.35246,90.354121 90.35246,90.354121c4.990632,4.988843 4.990632,13.075924 0,18.06809c-4.989738,4.992293 -13.080396,4.992293 -18.069368,0c0,0 -90.353355,-90.350799 -90.353355,-90.350799c-4.990504,-4.992166 -4.990504,-13.082696 0,-18.071412c4.989866,-4.988843 13.080524,-4.988843 18.070262,0zm72.283093,0c0,0 -90.353355,90.354121 -90.353355,90.354121c-4.990504,4.988843 -4.990504,13.075924 0,18.06809c4.989866,4.992293 13.080524,4.992293 18.070262,0c0,0 90.35246,-90.350799 90.35246,-90.350799c4.990632,-4.992166 4.990632,-13.082696 0,-18.071412c-4.989738,-4.988843 -13.080396,-4.988843 -18.069368,0z" fill="#d10138" fill-rule="evenodd"/>
  </g>
  <rect stroke="null" id="svg_14" height="36.753749" width="36.332011" y="58.179524" x="58.660977" stroke-width="1.5" fill="#d10138"/>
 </g>
</svg>
