<svg xmlns="http://www.w3.org/2000/svg" width="18" height="18" viewBox="0 0 18 18">
	<style type="text/css">
		.st0{fill:#0c65d4;}
	</style>
	<path class="st0" d="M15,7L13,7L13,9L11,9L11,7L9,7L9,5L11,5L11,3L13,3L13,5L15,5ZM12.29,0C11.52,0 10.84,0.3 10.23,0.58C9.77,0.78 9.33,0.98 9,0.98C8.66,0.98 8.22,0.78 7.76,0.58C7.15,0.3 6.47,0 5.7,0C3.14,0 0,2.75 0,5C0,6.05 2.35,18 5.7,18C6.98,18 7.17,16.61 7.37,15.14C7.64,13.19 7.94,11.57 9,11.57C10.05,11.57 10.35,13.19 10.62,15.14C10.82,16.61 11.01,18 12.29,18C15.64,18 18,6.05 18,5C18,2.75 14.85,0 12.29,0"/>
</svg>
