<svg xmlns="http://www.w3.org/2000/svg" width="160.08" height="111.57" viewBox="0 0 160.08 111.57">
	<style type="text/css">
		.st0{fill:#0c65d4;}
	</style>
	<path class="st0" d="M63.25,77.61L63.25,33.22L105.57,55.41ZM157.31,17.94C155.35,9.43 148.38,3.15 140,2.21C120.15,0 100.06,0 80.06,0C60.06,0 39.96,0 20.11,2.21C11.73,3.15 4.77,9.43 2.81,17.94C0.03,30.07 0,43.3 0,55.78C0,68.27 0,81.5 2.78,93.63C4.74,102.14 11.7,108.42 20.08,109.36C39.93,111.57 60.02,111.58 80.03,111.57C100.03,111.58 120.12,111.57 139.97,109.35C148.35,108.42 155.32,102.14 157.28,93.63C160.06,81.5 160.08,68.27 160.08,55.78C160.08,43.3 160.09,30.07 157.31,17.94"/>
</svg>
