<svg xmlns="http://www.w3.org/2000/svg" width="63.75" height="94.76" viewBox="0 0 63.75 94.76">
	<style type="text/css">
		.st0{fill:#0c65d4;}
	</style>
	<path class="st0" d="M41.52,60.19L42.32,58.79C43.22,57.19 44.92,56.39 46.72,56.69L48.32,56.99C50.82,57.39 53.02,55.59 53.22,53.09L53.32,51.49C53.42,49.69 54.62,48.19 56.32,47.69L57.92,47.29C60.32,46.59 61.62,43.99 60.62,41.69L60.02,40.19C59.32,38.59 59.82,36.69 61.12,35.49L62.32,34.39C64.22,32.79 64.22,29.79 62.32,28.19L61.12,27.09C59.82,25.89 59.32,23.99 60.02,22.39L60.62,20.89C61.62,18.59 60.32,15.99 57.92,15.29L56.32,14.89C54.62,14.39 53.42,12.89 53.32,11.09L53.22,9.39C53.12,6.89 50.82,5.09 48.42,5.49L46.82,5.79C45.02,6.09 43.32,5.29 42.52,3.69L41.72,2.29C40.52,0.09 37.72,-0.5 35.72,0.89L34.42,1.79C33.02,2.79 31.02,2.79 29.62,1.79L28.32,0.79C26.32,-0.7 23.42,0 22.22,2.19L21.42,3.59C20.52,5.19 18.82,5.99 17.02,5.69L15.42,5.39C12.92,4.99 10.72,6.79 10.52,9.29L10.42,10.89C10.32,12.69 9.12,14.19 7.42,14.69L5.82,15.19C3.42,15.89 2.12,18.49 3.12,20.79L3.72,22.29C4.42,23.89 3.92,25.79 2.62,26.99L1.42,28.09C-0.47,29.69 -0.47,32.69 1.42,34.29L2.62,35.39C3.92,36.59 4.42,38.49 3.72,40.09L3.12,41.59C2.12,43.89 3.42,46.49 5.82,47.19L7.42,47.59C9.12,48.09 10.32,49.59 10.42,51.39L10.52,52.99C10.62,55.49 12.92,57.29 15.32,56.89L16.92,56.59C18.72,56.29 20.42,57.09 21.22,58.69L22.02,60.09C23.22,62.29 26.02,62.89 28.02,61.49L29.32,60.59C30.72,59.59 32.72,59.59 34.12,60.59L35.42,61.59C37.52,62.99 40.32,62.39 41.52,60.19"/>
	<path class="st0" d="M31.87,45.95C23.73,45.95 17.09,39.38 17.09,31.17C17.09,23.04 23.66,16.39 31.87,16.39C40.01,16.39 46.65,22.96 46.65,31.17C46.65,39.31 40.01,45.95 31.87,45.95"/>
	<path class="st0" d="M26.04,68.45C27.04,68.45 28.14,68.25 29.04,67.95L18.74,93.84C18.44,94.65 17.34,94.75 16.94,93.95L12.04,85.34C11.84,85.05 11.54,84.95 11.24,85.05L2.04,87.95C1.24,88.25 0.44,87.45 0.84,86.65L10.64,62.15C11.94,62.75 13.44,63.15 14.94,63.15C15.54,63.15 16.14,63.05 16.74,62.95L16.94,62.95L17.04,63.15C18.74,66.45 22.24,68.45 26.04,68.45"/>
	<path class="st0" d="M63.64,86.95C63.94,87.75 63.24,88.55 62.44,88.25L53.24,85.34C52.94,85.25 52.64,85.34 52.44,85.65L47.54,94.25C47.14,94.95 46.04,94.95 45.74,94.15L35.34,68.15C36.34,68.45 37.34,68.65 38.34,68.65C42.14,68.65 45.54,66.65 47.34,63.34L47.44,63.15L47.64,63.15C48.24,63.25 48.84,63.34 49.44,63.34C51.04,63.34 52.44,62.95 53.84,62.34Z"/>
</svg>
