<svg xmlns="http://www.w3.org/2000/svg" width="93.66" height="93.67" viewBox="0 0 93.66 93.67">
	<style type="text/css">
		.st0{fill:#d10138;}
	</style>
	<path class="st0" d="M46.83,83.7C26.47,83.7 9.95,67.2 9.95,46.84C9.95,26.47 26.47,9.96 46.83,9.96C67.19,9.96 83.7,26.47 83.7,46.84C83.7,67.2 67.19,83.7 46.83,83.7M46.83,0C21,0 0,21 0,46.84C0,72.66 21,93.67 46.83,93.67C72.66,93.67 93.66,72.66 93.66,46.84C93.66,21 72.66,0 46.83,0"/>
	<path class="st0" d="M37.39,31.47C36.56,30.64 34.44,30.64 34.44,31.47L34.44,65.32C34.44,66.15 36.57,66.15 37.4,65.32L65.18,49.9C66.01,49.07 66.03,47.72 65.2,46.89Z"/>
</svg>
