<svg xmlns="http://www.w3.org/2000/svg" width="22" height="22" viewBox="0 0 22 22">
	<style type="text/css">
		.st2{stroke:#ffffff;fill:none;stroke-width:0.5;}
		.st1{fill:#ffffff;}
		.st0{fill:#b4bad4;}
	</style>
	<path class="st0" d="M11,22C4.92,22 0,17.07 0,11C0,4.92 4.92,0 11,0C17.07,0 22,4.92 22,11C22,17.07 17.07,22 11,22"/>
	<path class="st1" d="M11,11.38L14.44,13.1C14.94,13.35 15.14,13.95 14.89,14.44C14.64,14.94 14.04,15.14 13.55,14.89L9.55,12.89C9.21,12.72 9,12.37 9,12L9,6C9,5.44 9.44,5 10,5C10.55,5 11,5.44 11,6Z"/>
	<path class="st2" d="M11,11.38L14.44,13.1C14.94,13.35 15.14,13.95 14.89,14.44C14.64,14.94 14.04,15.14 13.55,14.89L9.55,12.89C9.21,12.72 9,12.37 9,12L9,6C9,5.44 9.44,5 10,5C10.55,5 11,5.44 11,6L11,11.38Z"/>
</svg>