<svg xmlns="http://www.w3.org/2000/svg" width="21.46" height="22.45" viewBox="0 0 21.46 22.45">
	<style type="text/css">
		.st1{stroke:#b9bccf;fill:none;stroke-width:0.75;}
		.st0{fill:#b9bccf;}
	</style>
	<path class="st0" d="M8.87,16.37C13.01,16.37 16.37,13.01 16.37,8.87C16.37,4.73 13.01,1.37 8.87,1.37C4.73,1.37 1.37,4.73 1.37,8.87C1.37,13.01 4.73,16.37 8.87,16.37M13.8,15.8C12.41,16.79 10.71,17.37 8.87,17.37C4.18,17.37 0.37,13.56 0.37,8.87C0.37,4.18 4.18,0.37 8.87,0.37C13.56,0.37 17.37,4.18 17.37,8.87C17.37,11.22 16.42,13.34 14.88,14.88L20.88,20.88C21.15,21.15 21.15,21.59 20.87,21.87C20.59,22.15 20.15,22.15 19.88,21.88Z"/>
	<path class="st1" d="M8.87,16.37C13.01,16.37 16.37,13.01 16.37,8.87C16.37,4.73 13.01,1.37 8.87,1.37C4.73,1.37 1.37,4.73 1.37,8.87C1.37,13.01 4.73,16.37 8.87,16.37ZM13.8,15.8C12.41,16.79 10.71,17.37 8.87,17.37C4.18,17.37 0.37,13.56 0.37,8.87C0.37,4.18 4.18,0.37 8.87,0.37C13.56,0.37 17.37,4.18 17.37,8.87C17.37,11.22 16.42,13.34 14.88,14.88L20.88,20.88C21.15,21.15 21.15,21.59 20.87,21.87C20.59,22.15 20.15,22.15 19.88,21.88L13.8,15.8Z"/>
</svg>
