<svg xmlns="http://www.w3.org/2000/svg" width="239.82" height="94.98" viewBox="0 0 239.82 94.98">
	<style type="text/css">
		.st1{fill:#b9bccf;fill-rule:evenodd;}
		.st0{fill:#b9bccf;}
	</style>
	<path class="st0" d="M217.33,38.38C214.57,38.38 213.2,40.48 213.2,44.68L213.2,48.89L221.43,48.89L221.43,44.68C221.43,40.48 220.05,38.38 217.33,38.38"/>
	<path class="st0" d="M229.67,55.75L213.2,55.75L213.2,63.81C213.2,68.01 214.57,70.11 217.4,70.11C219.43,70.11 220.61,69.01 221.08,66.81C221.16,66.36 221.26,64.53 221.26,61.23L229.67,61.23L229.67,62.43C229.67,65.08 229.56,66.91 229.49,67.74C229.21,69.56 228.57,71.22 227.57,72.67C225.29,75.97 221.91,77.6 217.61,77.6C213.3,77.6 210.02,76.05 207.64,72.94C205.89,70.67 204.99,67.08 204.99,62.25L204.99,46.34C204.99,41.48 205.79,37.92 207.54,35.63C209.92,32.51 213.2,30.97 217.4,30.97C221.53,30.97 224.81,32.51 227.12,35.63C228.84,37.92 229.67,41.48 229.67,46.34ZM198.58,63.33C198.58,67.54 198.3,70.57 197.75,72.49C196.65,75.87 194.45,77.6 191.17,77.6C188.24,77.6 185.41,75.97 182.66,72.57L182.66,76.97L174.42,76.97L174.42,15.97L182.66,15.97L182.66,35.89C185.32,32.62 188.14,30.97 191.17,30.97C194.45,30.97 196.65,32.69 197.75,36.1C198.3,37.92 198.58,40.93 198.58,45.23ZM167.29,76.97L159.05,76.97L159.05,72.02C155.78,75.77 152.67,77.6 149.64,77.6C146.99,77.6 145.16,76.52 144.34,74.22C143.88,72.84 143.61,70.67 143.61,67.46L143.61,31.52L151.84,31.52L151.84,64.98C151.84,66.91 151.84,67.92 151.92,68.19C152.12,69.46 152.75,70.11 153.85,70.11C155.5,70.11 157.23,68.84 159.05,66.26L159.05,31.52L167.29,31.52ZM142.41,24.56L132.54,24.56L132.54,76.97L123.38,76.97L123.38,24.56L113.7,24.56L113.7,15.97L142.41,15.97ZM237.46,15.27C235.8,8.03 229.87,2.68 222.73,1.88C205.83,0 188.73,0 171.7,0C154.67,0 137.56,0 120.67,1.88C113.53,2.68 107.6,8.03 105.94,15.27C103.57,25.6 103.54,36.86 103.54,47.49C103.54,58.12 103.54,69.38 105.91,79.71C107.58,86.95 113.5,92.3 120.64,93.1C137.54,94.98 154.64,94.99 171.67,94.98C188.7,94.99 205.81,94.98 222.7,93.1C229.84,92.3 235.77,86.95 237.44,79.71C239.81,69.38 239.82,58.12 239.82,47.49C239.82,36.86 239.84,25.6 237.46,15.27"/>
	<path class="st0" d="M186.76,38.38C185.41,38.38 184.03,39.02 182.66,40.38L182.66,68.09C184.03,69.46 185.41,70.11 186.76,70.11C189.14,70.11 190.35,68.09 190.35,63.98L190.35,44.58C190.35,40.48 189.14,38.38 186.76,38.38"/>
	<path class="st1" d="M87.29,76.96L87.29,31.05L78.97,31.05L78.97,66.14C77.13,68.74 75.38,70.03 73.72,70.03C72.6,70.03 71.95,69.38 71.77,68.09C71.67,67.82 71.67,66.8 71.67,64.85L71.67,31.05L63.37,31.05L63.37,67.35C63.37,70.59 63.65,72.79 64.11,74.18C64.94,76.51 66.79,77.59 69.47,77.59C72.5,77.59 75.66,75.75 78.97,71.95L78.97,76.96ZM48.21,63.66C48.21,67.91 46.92,70.03 44.24,70.03C41.55,70.03 40.27,67.91 40.27,63.66L40.27,44.35C40.27,40.1 41.55,37.98 44.24,37.98C46.92,37.98 48.21,40.1 48.21,44.35ZM56.53,62.1L56.53,46.02C56.53,41.11 55.69,37.52 53.95,35.2C51.64,32.06 48.41,30.49 44.24,30.49C40.09,30.49 36.85,32.06 34.55,35.2C32.78,37.52 31.95,41.11 31.95,46.02L31.95,62.1C31.95,66.97 32.78,70.59 34.55,72.89C36.85,76.02 40.09,77.59 44.24,77.59C48.41,77.59 51.64,76.02 53.95,72.89C55.69,70.59 56.53,66.97 56.53,62.1M31.87,15.35L22.54,15.35L16.25,39.54L9.7,15.35L0,15.35C1.94,21.06 3.96,26.8 5.91,32.52C8.87,41.11 10.71,47.58 11.55,52.01L11.55,76.96L20.77,76.96L20.77,52.01Z"/>
</svg>
