<svg xmlns="http://www.w3.org/2000/svg" width="245.2" height="139.41" viewBox="0 0 245.2 139.41">
	<style type="text/css">
		.st1{fill:#d2063d;}
		.st0{fill:#1a150f;}
	</style>
	<path class="st0" d="M136.63,117.95C136.02,118.12 135.75,117.45 135.65,117.08C134.92,114.38 137,107.89 138.79,107.41C139.9,107.11 140.4,109.4 140.27,110.9C140.1,112.95 137.97,117.6 136.63,117.95M130.08,102.76C130.28,102.7 130.51,103.03 130.62,103.42C131.14,105.37 130.37,111.62 128.44,115.89C128.29,114.76 127.95,111.95 128.68,106.88C129.09,103.98 129.66,102.87 130.08,102.76M129.76,101.44C129.39,101.54 129.11,101.82 128.86,102.13C127.29,104.08 126.95,109.74 126.92,112.35C126.9,114.2 127.01,115.95 127.22,117.54C127.03,117.82 126.14,118.7 126.23,119.04C126.27,119.18 126.36,119.58 126.63,119.5C126.98,119.4 127.54,118.79 127.63,118.82C128.08,121.18 129.27,121.33 129.83,121.32C130.78,121.3 131.62,120.64 132.79,119.22C133.32,118.56 133.91,117.67 134.41,116.76C134.71,118.65 135.8,119.26 136.82,118.99C138.35,118.57 139.36,116.65 140.17,115.33C140.08,117.09 141.07,117.66 141.75,117.54C142.7,117.37 143.45,115.82 143.74,115.14C144,114.54 144.67,113.14 145.26,111.78L145.26,111.89C145.29,113.77 145.38,114.46 145.5,114.9C145.7,115.63 146.11,115.91 146.3,115.86C146.5,115.81 146.89,115.61 147.09,114.57C147.99,110.11 149.03,107.67 149.53,106.64C149.8,106.09 149.9,106.03 149.96,106.02C150.21,105.95 150.2,106.34 150.2,106.46C150.14,109.14 150.3,110.71 150.4,111.43C150.59,112.91 150.87,114.39 152.12,114.71C152.83,114.89 153.43,114.59 154.02,114.05C155.02,113.13 156,111.22 156.65,109.75C156.65,110.76 156.71,111.52 156.86,112.08C157.31,113.73 158.41,113.59 158.63,113.53C159.38,113.32 160.03,112.19 160.37,111.44C161.11,109.74 161.66,107.11 161.91,105.07C161.96,104.78 162.01,103.97 161.42,104.12C160.89,104.27 160.93,105.06 160.82,105.75C160.37,108.33 160.04,109.9 159.53,111.1C159.1,112.09 158.23,112.72 157.91,111.56C157.55,110.26 158.02,105.89 158.3,103.74C158.75,103.53 159.14,103.42 159.47,103.33C159.9,103.25 160.17,103.23 160.41,103.17C160.72,103.09 161.03,102.67 160.92,102.26C160.84,101.98 160.61,101.56 159.78,101.78C159.63,101.82 159.42,101.91 158.6,102.31C159.07,98.29 159.65,98.02 159.51,97.46C159.43,97.18 159.14,96.9 158.56,97.06C157.58,97.32 157.69,98.7 157.07,102.84C156.85,102.93 156.12,103.22 155.39,103.38C155.02,103.45 154.62,103.53 154.27,103.69C153.76,103.91 153.68,104.27 153.73,104.46C153.86,104.93 154.44,104.87 154.72,104.79C155.31,104.63 156.23,104.39 156.87,104.12C156.8,105.11 156.73,105.97 156.69,106.73C156.64,107.59 156.37,108.38 155.98,109.12C155.37,110.31 154.44,112.7 153.23,113.39C152.54,113.79 152.08,113.65 151.87,112.68C151.48,110.85 151.59,108.27 151.52,105.59C151.5,104.82 151.42,103.35 150.2,103.68C149.72,103.81 149.46,104.39 149.31,104.69C148.49,106.32 147.55,108.85 147.09,110.23L146.62,111.61L146.62,110.03C146.6,108.63 146.96,106.77 147.1,105.26C147.24,103.7 146.46,103.7 146.16,103.78C145.63,103.92 145.28,104.52 145.29,105.12C145.29,106.02 145.5,105.78 145.44,107.11C145.42,107.93 145.27,108.55 145.05,109.33C144.65,110.7 143.56,112.9 142.98,114.18C142.76,114.66 142.08,116.07 141.72,116.17C141.57,116.2 141.47,115.81 141.4,115.54C141.21,114.84 141.27,114.19 141.43,112.89C141.61,111.56 141.99,110.77 141.79,110.01C141.75,109.85 141.67,109.68 141.63,109.52C141.53,109.15 141.49,108.78 141.39,108.39C140.77,106.13 139.44,105.95 138.66,106.16C137.65,106.43 136.97,107.12 136.45,107.95C135.41,109.62 134.74,111.81 134.47,113.72C134.38,113.9 134.33,114.1 134.28,114.26C133.82,115.94 132.74,118.54 130.92,119.72C129.09,120.91 128.97,118.4 128.84,117.6C131.29,113.44 131.93,108.39 131.99,105.83C132.01,104.69 131.92,103.7 131.66,102.75C131.2,101.02 130.06,101.35 129.76,101.44M122.26,112.17C122.77,112.03 123.87,112.6 124.5,114.91C125.47,118.51 124.12,121.45 122.54,121.88C121.73,122.1 120.63,121.86 119.79,121.48C118.63,120.93 118.87,119.81 119.02,118.86C119.46,115.97 120.99,112.5 122.26,112.17M103.23,115.17C102.79,115.29 102.3,116.26 102.23,116.88C102.17,117.43 102.33,117.93 102.4,118.39C102.45,118.58 102.45,118.7 102.42,118.92C102.42,119.04 102.4,119.17 102.27,119.92C102.09,121.04 102.04,121.51 101.76,123.59C101.45,125.88 101.52,126.67 101.67,127.23C101.83,127.85 102.3,128.14 102.58,128.07C103.33,127.86 103.31,126.67 103.55,125.68C103.91,124.11 104.55,121.94 105.82,119.32C106.28,118.36 106.54,118.32 106.62,118.3C106.82,118.24 106.89,118.4 106.93,118.57C107.06,119.05 106.99,119.69 106.83,122.07C106.64,124.27 106.46,125.04 106.62,125.63C106.78,126.21 107.21,126.61 107.47,126.54C108.05,126.38 108.31,124.57 109.3,121.82C109.68,120.76 110.71,118.06 111.05,117.97C111.1,117.95 111.22,117.95 111.24,118.01C111.27,118.12 111.33,118.25 111.3,119.01C111.21,121.34 111.11,122.53 111.39,123.56C111.78,125.01 112.72,125.39 113.31,125.24C113.64,125.15 114.46,124.82 115.5,122.91C116.41,121.24 117.09,119.9 117.52,118.93L117.48,119.2C117.17,121.39 117.22,129.33 117.59,130.72C117.83,131.61 118.48,131.56 118.73,131.49C119.1,131.39 119.55,130.97 119.36,130.25C119.29,130 119.11,129.77 119.04,129.52C118.94,129.13 118.66,128.43 118.71,122.43L118.82,122.49C120.28,123.24 121.89,123.43 122.67,123.22C124.76,122.66 127,118.97 125.73,114.28C125.01,111.57 123.45,110.56 122.19,110.9C121.07,111.2 120.07,112.58 119.18,114.49C119.19,113.08 119.66,112.6 119.49,111.98C119.32,111.34 118.86,111.41 118.63,111.47C117.9,111.67 117.74,112.67 117.58,115.91C117.55,116.51 117.22,117.09 116.97,117.65C115.68,120.48 115.63,120.62 114.38,122.81C113.18,124.91 112.55,123.6 112.49,122.33C112.37,119.5 112.68,119.66 112.59,116.93C112.57,116.25 112.5,115.25 111.47,115.52C110.24,115.85 109.46,118.07 108.22,121.36C108.28,120.57 108.39,118.45 108.12,117.44C107.87,116.49 107.3,116.29 106.83,116.42C105.8,116.69 105.14,118.04 104.73,119.05C104.25,120.16 103.81,121.09 103.19,122.99C103.86,117.6 104.39,116.8 104.17,115.97C103.97,115.24 103.51,115.1 103.23,115.17M95.78,128.94C96.88,120.35 97.02,117.86 97.53,109.91C98.51,109.53 99.44,109.1 99.22,108.29C99.05,107.65 98.35,107.96 97.67,108.2L95.09,109.07C94.66,109.22 93.67,109.55 93.85,110.25C94.01,110.81 94.56,110.98 95.96,110.49C95.82,115.07 94.89,125.2 94.09,129.3C93.34,129.45 93.03,129.5 92.86,129.55C91.69,129.86 91.67,130.35 91.73,130.57C92.04,131.72 95.52,130.51 96.66,130.2C97.58,129.95 97.81,129.47 97.74,129.19C97.68,128.97 97.3,128.59 96.68,128.73ZM81,130.38C81.98,130.23 82.77,129.84 83.45,129.27C85.2,133.98 83.57,138.01 82.65,138.26C82,138.43 81.64,137.42 81.42,136.59C81,135.05 80.84,132.22 81,130.38M81.1,127.42C81.86,127.24 82.46,127.71 82.78,128.22C82.33,128.64 81.92,128.81 81.07,129.07ZM73.06,125.25C73.38,124.98 73.78,124.81 74.17,124.71C75.09,124.46 76.58,124.87 77.26,127.38C78.12,130.59 76.47,134.11 74.07,134.76C73.04,135.04 71.83,134.67 71.3,132.69C70.64,130.24 71.36,126.6 73.06,125.25M74.34,136.01C76.43,135.44 78.89,132.84 78.87,129.2C79.06,129.72 79.35,129.99 79.65,130.14C79.64,131.22 79.68,134.6 80.32,137C80.96,139.34 82.14,139.5 82.59,139.38C85.01,138.73 86.41,132.46 84.41,128.38C85.12,127.47 86.38,125.16 86.17,124.38C86.13,124.21 86.01,123.97 85.87,124.01C85.67,124.06 85.24,123.91 85.03,124.68C84.74,125.72 84.22,126.67 83.69,127.38C83.14,126.66 82.28,126.11 81.1,126.31L81.23,124.33C81.36,122.27 81.69,120.38 82.32,116.62C82.58,115.05 81.9,115.06 81.53,115.15C80.5,115.43 80.7,116.61 80.73,117.38C80.78,118.77 80.52,117.73 79.87,125.63L79.77,126.82C79.27,127.21 78.93,127.72 78.8,128.2C78.75,127.82 78.68,127.43 78.57,127.02C77.62,123.51 75.07,122.7 72.91,123.79C70.53,124.05 69.09,129.82 69.92,132.92C70.58,135.37 72.26,136.57 74.34,136.01M65.26,97.23C65.4,97.19 65.76,97.28 65.9,97.84C66.33,99.43 65.79,101.97 64.14,101.63C64.13,99.81 64.59,97.41 65.26,97.23M50.49,101.01C50.96,96.99 51.54,96.71 51.39,96.15C51.32,95.87 51.03,95.59 50.45,95.75C49.47,96.01 49.57,97.39 48.96,101.54C48.74,101.62 48.01,101.91 47.28,102.08C46.91,102.15 46.51,102.23 46.16,102.38C45.65,102.61 45.57,102.96 45.62,103.15C45.75,103.63 46.33,103.56 46.61,103.49C47.19,103.33 48.11,103.08 48.76,102.82C48.39,107.64 48.39,109.44 48.75,110.78C49.2,112.43 50.3,112.28 50.52,112.22C51.27,112.02 51.84,110.84 52.26,110.13C52.86,109.11 53.64,107.65 54.21,106.21C54.2,106.41 54.2,106.59 54.21,106.77C54.2,108.65 54.05,109.29 54.17,109.74C54.33,110.35 54.74,110.4 54.88,110.36C55.82,110.1 56.3,107.22 57.51,104.17C58.2,102.48 58.38,102.05 58.46,102.02C58.52,102.01 58.55,102.12 58.57,102.2C58.63,102.4 58.66,103.65 58.64,103.8C58.7,107.47 58.7,108.01 58.81,108.43C59.11,109.55 60.13,109.87 61,108.77C61.95,107.56 62.52,105.18 62.84,103.39C62.9,103.86 62.98,104.31 63.1,104.76C63.77,107.24 65.16,107.73 66.36,107.41C68.87,106.73 70.28,100.97 69.74,98.98C69.58,98.37 69.21,98.35 69.07,98.39C68.55,98.53 68.63,99.29 68.64,99.67C68.78,102.18 67.51,105.78 66.14,106.15C64.89,106.49 64.27,104.41 64.2,102.93C66.58,102.89 67.79,99.96 67.09,97.34C66.68,95.83 65.63,95.7 65.1,95.84C64.73,95.94 64.26,96.18 63.85,96.86C63.45,97.52 63.13,98.49 62.94,99.6C62.84,99.93 62.75,100.27 62.66,100.56C62.09,102.45 61.51,104.5 61,106.43C60.7,107.55 60.38,107.82 60.22,107.86C60.16,107.88 60.1,107.78 60.06,107.7C60.04,107.65 60.02,107.56 60,107.51C59.87,106.7 59.88,105.83 59.88,104.94C59.86,101.86 59.69,101.13 59.63,100.9C59.57,100.68 59.33,100.03 58.66,100.2C58.1,100.36 57.41,101.23 55.95,105.22L55.5,106.44L55.6,103.16C55.6,102.53 55.68,101.04 56.02,97.51C56.19,95.37 56.37,95.02 56.4,93.93C56.44,92.85 55.89,92.37 55.08,93.36C54.23,94.4 54.76,94.26 54.8,96.19C54.83,97.2 54.62,97.98 54.46,101.16L54.39,102.42C54.21,102.92 53.93,103.78 53.82,104.2C53.19,106.46 52.06,108.46 51.42,109.79C51.05,110.55 50.63,110.75 50.38,110.82C50.15,110.88 49.91,110.4 49.8,109.99C49.46,108.73 49.91,104.51 50.18,102.43C50.63,102.22 51.03,102.12 51.36,102.02C51.79,101.94 52.05,101.93 52.3,101.86C52.61,101.78 52.92,101.37 52.81,100.95C52.73,100.67 52.5,100.25 51.66,100.48C51.52,100.52 51.31,100.6 50.49,101.01"/>
	<path class="st1" d="M91.81,96.75C92.91,91.33 93.82,85.26 96.67,80.48C97.03,79.88 98.98,77.07 100.17,78.25C100.56,78.61 100.49,79.27 99.95,79.41C99.53,79.53 99.19,78.96 98.35,80.14C97.07,81.96 95.3,85.39 93.52,94.67C92.96,97.57 92.9,100.35 91.87,100.63C90.1,101.1 90.24,95.97 90.16,95.28C89.76,91.83 88.52,77.42 81.42,81.72C79,83.18 76.44,86.8 76.04,90.62C75.65,94.19 78.03,95.79 80.94,94.92C82.27,94.56 82.68,95.71 81.39,96.05C77.74,97.16 75.36,95.65 74.73,93.33C73.26,87.86 80.26,76.64 86.35,80.48C89.16,82.23 90.2,87.31 90.84,91.02C91.16,92.79 91.12,92.86 91.81,96.75M99.07,97.63C100.4,97.27 102.53,92.63 102.7,90.58C102.83,89.08 102.34,86.79 101.22,87.09C99.43,87.57 97.35,94.06 98.08,96.76C98.18,97.13 98.45,97.8 99.07,97.63M124.91,84.98C125.29,86.55 125.19,87.9 125.32,89.51C125.58,92.71 126.46,98.42 122.23,99.56C120.5,100.03 118.54,99.45 117.98,97.36C117.64,96.1 117.95,95.57 118.26,95.49C119.72,95.09 118.58,99.47 121.88,98.58C125.2,97.69 124.57,92.62 123.89,89.06C123.48,90.22 122.37,92.55 120.56,93.04C118.92,93.49 117.97,92.37 117.62,90.66C116.93,92.64 115.8,94.86 114.23,94.48C111.9,93.87 112.27,87.9 112.31,86.23C112.29,85.31 111.81,86.06 111.64,86.41C111.14,87.44 110.09,89.87 109.2,94.33C108.97,95.54 108.04,96.26 107.61,94.67C107.39,93.85 107.3,92.98 107.29,92.09C106.58,94.44 105.38,97.01 104.19,97.21C103.5,97.34 102.51,96.77 102.6,95C101.79,96.33 100.79,98.25 99.25,98.66C94.93,99.83 96.86,86.98 101.09,85.84C103.2,85.27 103.66,87.73 104.06,89.2C104.6,91.21 103.28,93.18 103.83,95.21C104.26,96.81 105.17,94.47 105.41,93.86C106.63,90.79 107.41,88.16 107.4,84.89C107.37,83.36 109.41,82.8 109.2,85.03C109.01,87.17 108.72,89.22 108.73,91.38C109.52,89.04 110.3,86.67 111.41,84.46C112.34,82.6 113.56,83.53 113.63,85.36C113.69,88.04 113.7,90.07 114.08,91.91C115.04,96.38 117.25,87.81 117.58,87.39C117.96,84.57 119.32,81.67 121.39,81.12C124.09,80.39 124.81,83.51 124.91,84.98M121.61,82.4C119.8,82.89 118.09,87.87 118.86,90.74C119.92,94.68 123.19,89.1 123.05,87.19C122.99,86.52 122.85,85.87 123.53,85.32C123.45,84.18 123.36,81.93 121.61,82.4M137.21,87.35C138.55,86.99 140.68,82.35 140.85,80.3C140.98,78.8 140.48,76.51 139.37,76.81C137.58,77.29 135.5,83.77 136.23,86.48C136.33,86.84 136.6,87.52 137.21,87.35M176.69,100.49C177.09,96.83 177.4,93.16 178.01,89.54C178.37,87.47 180.9,87.31 179.85,90.12C178.69,93.21 178.39,97.15 178.32,100.44C182.62,100.2 187.03,95.41 187.04,91.17C187.06,86.68 182.07,85.15 176.67,87.65C174.38,88.72 171.77,90.77 170.12,93.01C168.31,95.48 168.57,96.99 168.62,97.19C169.52,100.52 174.09,97.83 174.4,99.01C174.58,99.68 173.8,99.97 172.87,100.2C168.61,101.25 167.23,98.91 166.87,97.6C165.73,93.35 172.29,88.45 175.26,86.87C179.91,84.39 189.31,83.86 188.61,91.65C188.15,96.75 183.09,101.1 178.22,101.96L178.06,105.14C177.98,106.87 178.54,106.78 178.62,107.33C178.68,107.73 178.39,108.14 177.86,108.28C175.77,108.85 176.63,102.88 176.68,102.01C175.74,101.84 175.39,100.32 176.69,100.49M199.3,102.08C200.64,101.72 202.77,97.08 202.94,95.03C203.06,93.52 202.58,91.24 201.46,91.54C199.67,92.02 197.59,98.5 198.32,101.21C198.42,101.57 198.69,102.25 199.3,102.08M224.68,82.08C226.17,81.68 226.22,84.03 225.02,84.35C223.63,84.72 223.35,82.43 224.68,82.08M239.54,87.14C239.6,88.61 240.23,90.69 241.48,90.35C242.85,89.99 244.11,86.38 243.98,83.87C243.94,83.01 244.71,81.8 245.09,83.19C245.62,85.17 244.21,90.94 241.7,91.62C239.7,92.15 238.54,90.2 238.15,87.76C237.35,90.62 235.36,93.92 232.79,94.62C230.34,95.28 229.16,93.38 228.95,90.88C228.2,92.93 227,95.52 225.81,95.84C224.72,96.13 224.08,94.05 223.91,91.73C223.12,94.22 221.86,97.51 220.16,97.96C217.02,98.81 218.34,89.3 218.4,88.56C217.94,88.75 215.51,89.82 215.26,88.89C215.02,87.98 218.07,87.49 218.6,87.28C219.21,83.13 219.11,81.75 220.09,81.49C220.67,81.33 220.96,81.61 221.04,81.89C221.18,82.45 220.6,82.73 220.13,86.75C220.69,86.47 222.15,85.6 222.45,86.69C222.74,87.78 220.49,87.86 219.82,88.17C219.54,90.25 219.1,94.47 219.44,95.73C220.41,99.35 223.35,90.48 223.45,90.19C223.79,89.17 224.16,86.29 225.11,86.03C226.36,85.69 225.81,87.66 225.73,88.11C225.51,89.37 225.29,91.46 225.32,93C225.34,94.31 225.75,95.21 226.36,93.98C227.22,92.25 228.36,89.41 228.89,88.1C229.74,86.02 230.2,82.8 232.77,82.11C234.49,81.65 235.71,83.05 235.99,84.53C235.86,86.25 235.77,87.71 234.93,87.93C232.64,88.55 235.72,82.72 233.04,83.44C230.41,84.15 228.63,94.6 232.44,93.57C233.98,93.16 235.5,91.28 236.59,88.41C236.79,87.86 237.01,84.84 238.03,85C238.18,82.62 239,80.43 240.44,80.04C243.48,79.23 243.5,87.06 239.54,87.14M156.2,72.78C154.01,73.71 152.9,78.13 152.8,80.07C152.7,82.79 153.86,84.66 155.48,82.67C156.31,81.63 157.58,79.23 157.88,76.58L157.89,76.45C157.99,75.46 157.89,74.64 157.68,74.03L157.68,74.02L157.66,73.98C157.33,73.05 156.73,72.64 156.2,72.78M191.88,92.58C192.07,92.92 192.2,93.16 192.32,93.31C192.48,93.45 192.62,93.24 193.15,92.78C193.56,92.42 194.17,92.47 194.48,92.85C194.73,93 194.86,93.36 194.75,93.97C194.55,95.04 194.37,96.62 194.3,98.22C194.33,99.21 194.39,100.17 194.48,100.93C194.63,102.33 194.92,102.63 195.26,102.37C195.96,101.59 196.79,98.94 196.97,98.29L196.98,98.28L196.99,98.23L197.02,98.12L197.05,98L197.08,97.87L197.11,97.74L197.14,97.62L197.18,97.49L197.21,97.35L197.24,97.21L197.27,97.08L197.31,96.94L197.34,96.8L197.38,96.65L197.41,96.51L197.45,96.36L197.48,96.21L197.52,96.06L197.52,96.06L197.56,95.91L197.6,95.76L197.64,95.61L197.68,95.46L197.73,95.3L197.77,95.15L197.77,95.15L197.81,95L197.86,94.85L197.91,94.69L197.95,94.54L198.01,94.39L198.06,94.23L198.11,94.08L198.16,93.93L198.22,93.78L198.28,93.63L198.34,93.49L198.4,93.34L198.47,93.2L198.47,93.2L198.53,93.06C198.55,93.01 198.58,92.96 198.6,92.91C198.62,92.87 198.64,92.82 198.67,92.77C198.69,92.73 198.71,92.69 198.74,92.64C198.76,92.59 198.79,92.55 198.81,92.5C198.84,92.46 198.86,92.41 198.89,92.37C198.91,92.33 198.94,92.28 198.96,92.24C198.99,92.2 199.02,92.15 199.04,92.11C199.07,92.07 199.1,92.03 199.13,91.99C199.15,91.95 199.18,91.91 199.21,91.87L199.21,91.87C199.24,91.83 199.27,91.79 199.3,91.75C199.33,91.71 199.36,91.67 199.39,91.63C199.42,91.6 199.45,91.56 199.48,91.52C199.51,91.48 199.54,91.45 199.57,91.41C199.6,91.37 199.64,91.34 199.67,91.31C199.7,91.27 199.74,91.24 199.77,91.21C199.8,91.17 199.84,91.14 199.87,91.11C199.91,91.07 199.94,91.04 199.98,91.01C200.01,90.98 200.05,90.95 200.09,90.92C200.12,90.89 200.16,90.87 200.2,90.84C200.23,90.81 200.27,90.79 200.31,90.76C200.35,90.73 200.39,90.71 200.43,90.68C200.47,90.66 200.51,90.63 200.55,90.61C200.58,90.59 200.63,90.56 200.67,90.54C200.71,90.52 200.75,90.5 200.8,90.48C200.84,90.46 200.88,90.44 200.92,90.42C200.97,90.41 201.01,90.39 201.05,90.37C201.1,90.36 201.15,90.34 201.19,90.33C201.24,90.31 201.28,90.3 201.33,90.29C203.44,89.72 203.91,92.17 204.3,93.64C204.84,95.66 203.52,97.63 204.07,99.66C204.79,102.34 207.08,95.28 207.17,95C207.9,92.76 208.99,88.52 211.48,87.85C213.21,87.38 214.42,88.79 214.7,90.27C214.57,91.98 214.48,93.44 213.64,93.67C211.35,94.29 214.43,88.46 211.75,89.18C209.12,89.89 207.34,100.33 211.15,99.31C212.69,98.89 214.22,97.01 215.3,94.15C215.93,92.48 215.72,90.95 216.45,90.76C217.69,90.42 216.99,92.99 216.9,93.33C216.13,96.23 214.12,99.65 211.5,100.35C209.03,101.02 207.85,99.09 207.65,96.55C207.11,97.77 205.9,101.4 204.43,101.66C203.74,101.78 202.75,101.21 202.85,99.45C202.03,100.78 201.03,102.7 199.49,103.11C198.19,103.46 197.46,102.54 197.19,101.04C196.53,102.85 195.51,104.79 194.1,103.66C192.36,102.26 193.1,97.22 193.18,94.71C192.27,95.52 191.44,95.12 190.88,94.18C190.48,96.12 189.93,98.83 188.5,100.12C187.78,100.77 186.94,100.63 186.83,100.3C186.75,100.09 187.22,99.9 187.74,99.31C188.74,98.21 189.76,95.77 189.67,93.48L189.67,93.36L189.67,93.25C189.67,93.21 189.67,93.18 189.67,93.14C189.67,93.11 189.67,93.07 189.67,93.04L189.68,92.94L189.69,92.84C189.69,92.81 189.69,92.78 189.7,92.75L189.71,92.67C189.71,92.64 189.72,92.61 189.72,92.58C189.73,92.55 189.73,92.53 189.74,92.5C189.75,92.48 189.75,92.45 189.76,92.42L189.78,92.35C189.79,92.33 189.79,92.31 189.8,92.28C189.81,92.26 189.81,92.24 189.82,92.22C189.83,92.2 189.84,92.18 189.85,92.16C189.86,92.14 189.87,92.12 189.87,92.1C189.88,92.08 189.9,92.06 189.9,92.04C189.91,92.03 189.92,92.01 189.93,91.99C189.94,91.98 189.95,91.96 189.96,91.95C189.99,91.9 190.03,91.86 190.06,91.82C190.08,91.81 190.09,91.8 190.1,91.79C190.11,91.78 190.12,91.77 190.14,91.75C190.15,91.75 190.16,91.73 190.18,91.73C190.19,91.72 190.2,91.71 190.21,91.7C190.23,91.69 190.24,91.69 190.26,91.68C190.27,91.67 190.28,91.67 190.3,91.66C190.31,91.65 190.32,91.65 190.34,91.64C190.35,91.64 190.36,91.63 190.38,91.63C190.42,91.62 190.47,91.61 190.51,91.6C190.52,91.6 190.54,91.6 190.55,91.6L190.6,91.6L190.65,91.6C190.66,91.6 190.67,91.6 190.69,91.61L190.74,91.61L190.78,91.62C190.8,91.62 190.81,91.63 190.83,91.63C190.84,91.64 190.86,91.64 190.87,91.65C190.89,91.65 190.91,91.66 190.92,91.66L190.97,91.68L191.02,91.7L191.06,91.72L191.1,91.75L191.15,91.77L191.19,91.8C191.21,91.81 191.22,91.82 191.24,91.83L191.28,91.87L191.29,91.87L191.33,91.9L191.37,91.93L191.37,91.93C191.38,91.95 191.4,91.96 191.41,91.97L191.45,92.01L191.49,92.05L191.54,92.09L191.58,92.14L191.61,92.18L191.65,92.23L191.69,92.27L191.72,92.32L191.76,92.37L191.79,92.42L191.82,92.48L191.85,92.53L191.85,92.53ZM151.08,82.87C150.64,84.02 149.93,85.2 148.86,84.68C146.83,83.72 147.64,79.1 147.65,77.17C146.74,77.84 145.91,77.51 145.35,76.72C144.92,79.72 144.88,83.87 143.17,85.67C142.56,86.31 141.95,86.22 141.49,85.87C141.11,85.69 140.79,85.33 140.75,84.72C139.94,86.05 138.93,87.97 137.4,88.38C135.98,88.77 135.23,87.63 135.02,85.89C134.49,87.05 133.87,88.17 133.41,88.83C132.24,90.49 131.02,88.89 130.78,87.53C130.34,88.6 128.89,92.09 127.1,90.74C124.78,88.96 126.43,82.59 127.36,80.58C127.86,79.39 129.49,79.73 128.84,81.32C127.86,83.8 127.55,85.74 127.47,86.54C127.17,88.78 127.8,91.36 129.45,87.92C130.54,85.71 130.68,84.24 130.89,82.59C131.13,80.55 133.23,80.58 132.43,82.96C132.13,83.85 131.76,85.05 131.82,86.47C131.98,91.27 134.89,83 135.13,82.73C135.62,79.55 137.15,76.12 139.24,75.55C139.27,75.55 139.31,75.54 139.34,75.53C139.37,75.52 139.4,75.52 139.43,75.51C139.46,75.5 139.5,75.5 139.53,75.49C139.56,75.49 139.59,75.49 139.62,75.48C139.65,75.48 139.68,75.48 139.71,75.48C139.73,75.47 139.77,75.47 139.79,75.47C141.45,75.44 141.89,77.57 142.21,78.91C142.41,79.66 141.19,85.24 142.19,85.04C142.41,84.99 142.72,84.82 142.97,84.29C143.69,82.37 144.3,79.01 144.14,76.13C144.02,74 145.63,74.33 146.28,75.28C146.94,76.24 146.72,76.21 147.62,75.53C148.72,74.7 149.5,75.39 149.25,76.36C148.22,80.19 148.83,84.63 149.84,83.44C150.8,82.33 153.66,68.69 157.55,71.61C157.57,71.62 157.59,71.64 157.61,71.65C157.63,71.68 157.66,71.7 157.69,71.72C157.88,71.88 158.07,72.07 158.26,72.31C158.37,70.35 158.5,68.39 158.58,66.42C158.63,64.84 160.17,64.84 160.01,66.61C159.44,73.94 159.46,74.68 159.51,77.84C159.51,78.24 159.35,81.48 160.19,81.25C161.56,80.88 161.54,75.99 162.58,76.48C163.62,76.97 161.73,80.78 161.39,81.37C160.02,83.77 158.29,81.55 158.33,79.68C157.56,81.38 155.17,86.33 152.77,83.94C152.11,83.27 151.77,82.26 151.68,81.09C151.53,81.65 151.33,82.3 151.08,82.87M240.6,81.43C239.93,81.61 239.47,84.01 239.49,85.83C241.82,86.31 241.77,81.12 240.6,81.43"/>
	<path class="st1" d="M19.76,73.13C20.16,73.13 25.23,73.79 27.98,68.23C31.81,60.48 39.53,28.2 39.53,28.2L28.15,28.2L20.91,56.14C20.91,56.14 20.62,57.31 19.76,57.31C18.91,57.31 18.62,56.14 18.62,56.14L11.54,28.2L0,28.2C0,28.2 7.72,60.48 11.55,68.23C14.3,73.79 19.37,73.13 19.76,73.13"/>
	<path class="st1" d="M75.73,73.1L75.73,43.19C75.73,43.19 76.96,27.24 93.11,27.25C98.79,27.26 109.21,32.04 109.32,44.05C109.35,48.51 106.3,56.34 99.51,58.94L93.85,48.42C93.85,48.42 97.17,47.01 97.04,43.61C96.98,42.17 96.03,39.74 92.72,39.74C91.34,39.74 88.62,40.69 88.62,43.76L88.62,73.1Z"/>
	<path class="st0" d="M52.45,69.71L52.45,70.99L47.88,72.15L47.88,73.95L52.45,73.95L52.45,76.16L48.5,77.24L48.82,79.22L53.41,78.97L53.69,80.7L49.83,82.55L50.16,84.16L55.26,83.92L55.26,85.86L51.44,87.38L51.28,88.47C51.28,88.47 52.93,90.72 58.18,90.72C63.26,90.72 65.04,86.42 65.04,86.42L60.98,84.33L61.5,82.31L65.85,82.5L66.25,80.74L61.98,79.29L62.47,77.08L67.38,77.08L67.38,75.67L63.47,74.47L63.47,72.25L68.55,72.25L68.55,70.28L63.91,69.18L63.91,66.32L68.49,66.32L68.49,64.52L63.91,63.36L63.91,62.01L63.91,60.7L68.49,60.7L68.49,58.9L63.92,57.75L63.94,55.58L68.51,55.58L68.51,53.78L63.94,52.63L63.94,50.19L68.69,50.29L68.69,47.99L64.11,46.43L64.11,43.65L68.17,43.31C69.15,40.82 69.96,28.25 69.96,28.25L46.39,28.25L45.43,28.25C45.43,28.25 45.62,40.44 47.88,45.71L52.45,45.9L52.45,48.33L47.88,49.48L47.88,51.28L52.45,51.28L52.45,52.39L52.45,54.2L47.88,55.36L47.88,57.16L52.45,57.16L52.45,58.07L52.45,59.68L47.88,60.84L47.88,62.63L52.45,62.63L52.45,63.75L52.45,65.56L47.88,66.72L47.88,68.51L52.45,68.51Z"/>
	<path class="st0" d="M61.87,2.36L50.76,4.18L46.77,14.72L53.91,23.44L65.03,21.62L69.01,11.08ZM57.89,15.91C56.23,15.91 54.88,14.56 54.88,12.9C54.88,11.24 56.23,9.9 57.89,9.9C59.55,9.9 60.89,11.24 60.89,12.9C60.89,14.56 59.55,15.91 57.89,15.91"/>
	<path class="st0" d="M57.89,25.81C50.77,25.81 44.98,20.02 44.98,12.9C44.98,5.79 50.77,0 57.89,0C65.01,0 70.8,5.79 70.8,12.9C70.8,20.02 65.01,25.81 57.89,25.81M57.89,0.72C51.17,0.72 45.71,6.18 45.71,12.9C45.71,19.62 51.17,25.08 57.89,25.08C64.6,25.08 70.07,19.62 70.07,12.9C70.07,6.18 64.6,0.72 57.89,0.72"/>
</svg>