<svg
		xmlns="http://www.w3.org/2000/svg"
		xmlns:xlink="http://www.w3.org/1999/xlink"
		width="21px" height="17px">
	<path fill-rule="evenodd"  fill="rgb(255, 255, 255)"
		  d="M1.743,0.219 L19.976,0.219 C20.455,0.219 20.844,0.607 20.844,1.087 L20.844,1.882 C20.844,2.361 20.455,2.750 19.976,2.750 L1.743,2.750 C1.264,2.750 0.875,2.361 0.875,1.882 L0.875,1.087 C0.875,0.607 1.264,0.219 1.743,0.219 Z"/>
	<path fill-rule="evenodd"  fill="rgb(255, 255, 255)"
		  d="M1.739,6.844 L19.980,6.844 C20.457,6.844 20.844,7.230 20.844,7.707 L20.844,8.511 C20.844,8.988 20.457,9.375 19.980,9.375 L1.739,9.375 C1.262,9.375 0.875,8.988 0.875,8.511 L0.875,7.707 C0.875,7.230 1.262,6.844 1.739,6.844 Z"/>
	<path fill-rule="evenodd"  fill="rgb(255, 255, 255)"
		  d="M1.743,13.500 L19.976,13.500 C20.455,13.500 20.844,13.889 20.844,14.368 L20.844,15.163 C20.844,15.643 20.455,16.031 19.976,16.031 L1.743,16.031 C1.264,16.031 0.875,15.643 0.875,15.163 L0.875,14.368 C0.875,13.889 1.264,13.500 1.743,13.500 Z"/>
</svg>
