<svg xmlns="http://www.w3.org/2000/svg"
 xmlns:xlink="http://www.w3.org/1999/xlink"
 width="12px" height="12px"  viewBox="0 0 12 12">
<path fill-rule="evenodd"  fill="#1c1d21"
 d="M3.1715088,1.7571182 C3.1715088,1.7571182 10.242554,8.828293 10.242554,8.828293 C10.633118,9.2187195 10.633118,9.851624 10.242554,10.24231 C9.852051,10.633011 9.218872,10.633011 8.82843,10.24231 C8.82843,10.24231 1.7573242,3.171402 1.7573242,3.171402 C1.3667603,2.7807083 1.3667603,2.1475449 1.7573242,1.7571182 C2.1478271,1.3666916 2.7810059,1.3666916 3.1715088,1.7571182 ZM8.82843,1.7571182 C8.82843,1.7571182 1.7573242,8.828293 1.7573242,8.828293 C1.3667603,9.2187195 1.3667603,9.851624 1.7573242,10.24231 C2.1478271,10.633011 2.7810059,10.633011 3.1715088,10.24231 C3.1715088,10.24231 10.242554,3.171402 10.242554,3.171402 C10.633118,2.7807083 10.633118,2.1475449 10.242554,1.7571182 C9.852051,1.3666916 9.218872,1.3666916 8.82843,1.7571182 Z"/>
</svg>
