<svg xmlns="http://www.w3.org/2000/svg" width="88.41" height="73.37" viewBox="0 0 88.41 73.37">
	<style type="text/css">
		.st0{fill:#ffffff;}
	</style>
	<path class="st0" d="M15.98,59.14C16.3,59.14 20.4,59.68 22.63,55.18C25.72,48.91 31.97,22.81 31.97,22.81L22.76,22.81L16.91,45.4C16.91,45.4 16.67,46.34 15.98,46.34C15.29,46.34 15.05,45.4 15.05,45.4L9.33,22.81L0,22.81C0,22.81 6.24,48.91 9.34,55.18C11.56,59.68 15.66,59.14 15.98,59.14"/>
	<path class="st0" d="M61.24,59.12L61.24,34.93C61.24,34.93 62.24,22.03 75.3,22.04C79.89,22.04 88.32,25.91 88.4,35.63C88.44,39.23 85.97,45.56 80.47,47.67L75.9,39.16C75.9,39.16 78.58,38.02 78.47,35.27C78.42,34.1 77.66,32.14 74.98,32.14C73.87,32.14 71.67,32.91 71.67,35.39L71.67,59.12Z"/>
	<path class="st0" d="M42.42,56.38L42.42,57.41L38.72,58.35L38.72,59.8L42.42,59.8L42.42,61.59L39.22,62.47L39.49,64.06L43.19,63.87L43.42,65.26L40.3,66.76L40.57,68.06L44.69,67.87L44.69,69.43L41.6,70.67L41.47,71.54C41.47,71.54 42.81,73.37 47.05,73.37C51.16,73.37 52.6,69.89 52.6,69.89L49.31,68.2L49.73,66.57L53.25,66.72L53.58,65.3L50.13,64.13L50.52,62.34L54.49,62.34L54.49,61.2L51.33,60.22L51.33,58.43L55.43,58.43L55.43,56.84L51.69,55.95L51.69,53.63L55.39,53.63L55.39,52.18L51.69,51.24L51.69,50.15L51.69,49.09L55.39,49.09L55.39,47.64L51.7,46.7L51.71,44.95L55.41,44.95L55.41,43.49L51.71,42.56L51.71,40.59L55.55,40.67L55.55,38.81L51.85,37.55L51.85,35.3L55.13,35.02C55.93,33.01 56.58,22.85 56.58,22.85L37.52,22.85L36.74,22.85C36.74,22.85 36.89,32.7 38.72,36.96L42.42,37.12L42.42,39.08L38.72,40.02L38.72,41.47L42.42,41.47L42.42,42.37L42.42,43.83L38.72,44.77L38.72,46.22L42.42,46.22L42.42,46.96L42.42,48.26L38.72,49.2L38.72,50.65L42.42,50.65L42.42,51.55L42.42,53.02L38.72,53.95L38.72,55.4L42.42,55.4Z"/>
	<path class="st0" d="M50.03,1.91L41.05,3.38L37.82,11.9L43.59,18.96L52.59,17.48L55.81,8.96ZM46.81,12.86C45.47,12.86 44.38,11.77 44.38,10.43C44.38,9.09 45.47,8 46.81,8C48.16,8 49.25,9.09 49.25,10.43C49.25,11.77 48.16,12.86 46.81,12.86"/>
	<path class="st0" d="M46.81,20.87C41.06,20.87 36.38,16.19 36.38,10.43C36.38,4.68 41.06,0 46.81,0C52.57,0 57.25,4.68 57.25,10.43C57.25,16.19 52.57,20.87 46.81,20.87M46.81,0.58C41.38,0.58 36.96,5 36.96,10.43C36.96,15.86 41.38,20.28 46.81,20.28C52.25,20.28 56.67,15.86 56.67,10.43C56.67,5 52.25,0.58 46.81,0.58"/>
</svg>